<?xml version="1.0" standalone="no"?>
<!DOCTYPE svg PUBLIC "-//W3C//DTD SVG 20010904//EN"
 "http://www.w3.org/TR/2001/REC-SVG-20010904/DTD/svg10.dtd">
<svg version="1.0" xmlns="http://www.w3.org/2000/svg"
 width="1080.000000pt" height="1080.000000pt" viewBox="0 0 1080.000000 1080.000000"
 preserveAspectRatio="xMidYMid meet">
    <rect width="100%" height="100%" fill="red" />
<g transform="translate(0.000000,1080.000000) scale(0.100000,-0.100000)"
fill="#000000" stroke="none">
<path d="M7540 8424 c-256 -108 -197 -100 -570 -80 -490 25 -464 28 -541 -71
-25 -32 -96 -122 -157 -201 -69 -89 -112 -152 -112 -166 0 -15 53 -88 155
-211 85 -102 155 -187 155 -188 0 -1 -82 3 -182 9 -101 6 -184 10 -185 9 -2
-1 62 -65 141 -143 104 -103 150 -142 167 -142 13 0 93 18 177 39 101 26 152
35 152 27 0 -7 -20 -72 -45 -146 -47 -139 -54 -185 -32 -213 17 -23 360 -177
395 -177 15 0 54 5 86 11 32 6 60 8 62 6 3 -2 -28 -23 -67 -47 -104 -62 -119
-60 -380 40 -117 45 -224 88 -236 96 -39 25 -38 54 7 168 23 59 40 109 39 111
-2 2 -51 -14 -108 -36 -118 -45 -148 -47 -185 -18 l-26 21 -58 -54 c-32 -29
-160 -147 -284 -262 -125 -115 -233 -223 -241 -240 -8 -17 -38 -164 -66 -326
-35 -201 -59 -309 -74 -339 -20 -40 -70 -80 -472 -373 -583 -426 -522 -385
-543 -365 -14 15 -14 19 -2 31 8 8 202 179 430 380 236 209 422 381 432 399 9
18 42 172 73 342 31 171 63 324 71 340 8 17 149 153 313 303 l299 273 -63 59
c-34 33 -64 60 -68 60 -16 0 -644 -575 -660 -604 -9 -18 -49 -178 -87 -356
-39 -178 -78 -336 -88 -351 -15 -25 -756 -679 -768 -679 -10 0 -480 320 -506
345 -57 53 -58 51 296 401 265 262 326 327 336 360 9 30 9 129 -2 438 l-13
398 -189 -207 c-103 -114 -194 -219 -202 -233 -8 -15 -14 -42 -14 -60 0 -38
68 -207 106 -266 33 -49 28 -92 -17 -144 -17 -20 -149 -158 -293 -305 -143
-148 -266 -281 -273 -295 -17 -38 -16 -96 3 -134 11 -23 95 -93 283 -236 146
-112 276 -212 289 -222 l24 -19 -37 -59 c-20 -33 -43 -81 -51 -108 -8 -27 -53
-271 -99 -542 -46 -272 -90 -504 -98 -515 -8 -12 -86 -68 -173 -124 -218 -139
-298 -197 -328 -235 -13 -18 -88 -199 -166 -403 -78 -203 -148 -382 -156 -397
-19 -36 -56 -63 -296 -211 -109 -67 -200 -129 -203 -138 -7 -20 21 -87 48
-116 20 -22 26 -23 205 -23 l185 0 186 116 c102 65 203 128 224 141 21 13 41
32 44 41 18 50 219 515 245 567 47 94 114 152 208 180 81 24 460 181 495 205
23 16 54 47 69 70 15 23 97 223 182 443 86 221 189 486 230 589 41 103 74 198
74 212 0 13 -9 53 -20 88 -11 34 -20 65 -20 66 0 4 44 -31 108 -85 59 -50 59
-65 -15 -460 -36 -195 -63 -357 -60 -360 4 -4 1036 418 1054 432 2 1 6 16 9
34 l7 33 -156 -4 c-138 -3 -158 -1 -174 14 -16 17 -16 34 7 335 14 175 24 329
24 343 -1 14 -36 106 -79 203 -42 98 -76 179 -74 181 8 7 274 -76 288 -89 12
-11 12 -69 2 -374 -8 -271 -8 -367 1 -386 l11 -25 350 -2 c298 -3 351 -5 359
-18 7 -10 -2 -41 -27 -102 -41 -98 -27 -89 -170 -105 l-70 -8 -96 -270 c-53
-148 -95 -271 -94 -273 3 -3 493 202 548 229 51 26 84 55 103 91 14 27 185
500 255 706 41 123 41 156 -5 186 -13 8 -189 78 -392 156 -203 78 -373 144
-377 147 -5 3 67 39 160 79 92 41 174 82 181 92 21 28 8 63 -103 274 -58 111
-104 202 -102 204 8 8 458 -470 463 -492 10 -38 -20 -71 -99 -110 -59 -30 -68
-38 -52 -44 11 -4 110 -42 221 -83 111 -41 219 -84 241 -96 61 -31 65 -50 50
-231 -8 -85 -13 -156 -12 -158 6 -7 227 251 242 283 17 36 16 54 -36 651 -29
338 -51 617 -48 620 3 3 117 39 254 79 298 88 299 89 313 115 9 17 50 207 50
233 0 4 -51 5 -114 1 l-114 -7 -16 26 c-9 14 -18 38 -19 53 l-2 29 142 10
c126 9 166 16 152 29 -12 11 -462 246 -466 243 -2 -2 4 -21 12 -42 9 -20 14
-39 11 -42 -6 -6 -289 77 -308 91 -14 11 -128 198 -128 210 0 17 41 -1 145
-65 l115 -70 70 22 c39 13 70 28 70 35 0 19 -140 144 -190 169 -109 54 -431
176 -450 170 -22 -7 -28 -26 -32 -95 l-3 -45 -75 88 c-41 49 -77 95 -79 104
-5 26 40 111 63 117 11 3 107 6 211 6 207 1 251 7 300 42 18 13 119 107 225
210 192 186 216 220 165 225 -11 1 -90 -27 -175 -63z"/>
<path d="M7836 8008 c-48 -51 -97 -98 -109 -105 -12 -7 -49 -13 -82 -14 -33 0
-81 -4 -107 -7 l-48 -7 134 -82 c74 -46 141 -86 149 -89 9 -3 28 7 46 23 23
21 46 67 92 185 34 87 59 165 55 173 -12 33 -46 13 -130 -77z"/>
<path d="M7707 5538 c-4 -62 -7 -147 -7 -188 -1 -107 -19 -141 -119 -220 l-83
-65 80 -24 c45 -13 83 -30 86 -37 7 -17 -157 -297 -182 -309 -13 -7 -52 -8
-113 -3 -71 6 -94 5 -100 -4 -24 -38 -140 -340 -137 -355 2 -11 12 -18 23 -17
35 2 432 112 470 130 25 12 52 40 87 93 28 42 141 205 250 363 109 158 206
304 214 324 19 45 13 72 -23 106 -25 23 -344 255 -414 301 l-26 17 -6 -112z"/>
<path d="M5115 3961 l-219 -98 -76 -226 c-44 -133 -83 -235 -95 -246 -11 -11
-80 -43 -152 -71 -73 -28 -136 -56 -140 -62 -3 -7 -12 -97 -19 -202 -7 -105
-16 -220 -20 -256 l-6 -65 -99 -101 c-54 -55 -99 -105 -99 -111 0 -6 11 -25
25 -41 19 -23 42 -34 95 -47 83 -20 56 -34 259 132 91 74 151 131 162 153 10
19 29 110 43 203 14 93 30 174 36 182 6 7 52 21 103 30 108 21 168 46 201 86
13 16 42 75 64 131 253 648 253 649 233 687 -20 37 -65 26 -296 -78z"/>
</g>
</svg>
